<?xml version="1.0" encoding="utf-8"?>
<!-- Generator: Adobe Illustrator 28.3.0, SVG Export Plug-In . SVG Version: 6.00 Build 0)  -->
<svg version="1.1" id="Layer_1" xmlns="http://www.w3.org/2000/svg" xmlns:xlink="http://www.w3.org/1999/xlink" x="0px" y="0px"
	 viewBox="0 0 1366 768" style="enable-background:new 0 0 1366 768;" xml:space="preserve">
<style type="text/css">
	.st0{fill:#FFFFFF;stroke:#000000;stroke-miterlimit:10;}
</style>
<path class="st0" d="M1273,416c-1,4.53-1.75,9.13-3.08,13.56c-1.37,4.6-2.86,9.26-5.06,13.5c-8.95,17.22-28.88,20.48-43.2,7.23
	c-9.33-8.64-13.56-19.99-14.4-32.09c-1.43-20.41-1.6-40.9-2.28-61.36c-0.07-2.24-0.01-4.48-0.94-6.93c-0.66,1.22-1.42,2.4-1.98,3.67
	c-12.16,27.58-18.94,56.4-19.83,86.55c-0.12,4.19-2.34,5.97-5.9,6.82c-11.15,2.63-21.36-2.79-24.02-13.92
	c-2.47-10.32-4.12-20.91-5.12-31.48c-1.49-15.75-2.08-31.58-3.07-47.37c-0.06-0.92-0.33-1.83-0.77-4.18
	c-1.92,2.6-3.36,4.07-4.25,5.82c-10.54,20.74-16.68,42.72-18.09,65.96c-0.55,9.15-0.71,18.31-1.09,27.47
	c-0.27,6.46-1.88,8.57-8.37,8.64c-6.08,0.07-12.22-0.63-18.23-1.61c-4.13-0.67-6.59-3.43-6.57-8.11c0.01-3.44-0.6-6.88-1.1-12.09
	c-6.81,14.45-15.49,24.59-31.79,21.85c-15.09-2.54-22.9-12.82-26.47-28.03c-8.4,14.8-19.17,25.53-35.82,27.96
	c-17.41,2.54-29.37-5.81-37.71-20.68c-2.46,3.51-4.49,6.89-6.99,9.88c-10.34,12.39-24.71,14.66-38.42,6.09
	c-12.93-8.08-18.23-20.77-20.38-35.08c-3.26-21.59-0.53-42.86,4.31-63.91c0.95-4.15,0.14-5.53-4.08-5.26
	c-5.81,0.38-12.86-1.44-17.12,1.25c-3.9,2.47-4.89,9.64-7.02,14.8c-11.47,27.75-26.65,53.24-45.89,76.34
	c-1.51,1.82-2.33,4.73-2.39,7.16c-0.47,18.31,0.2,36.69-1.29,54.9c-0.88,10.76-3.85,21.74-8,31.75
	c-9.01,21.76-32.59,31.88-54.63,24.76c-19.16-6.18-28.13-23.39-22.3-42.69c2.92-9.66,8.51-17.79,15.44-24.79
	c12.06-12.19,24.24-24.33,37.17-35.57c6.4-5.56,7.79-11.26,5.58-19.5c-9.43,12.01-20.54,20.63-36.2,20.97
	c-16.36,0.36-26.52-8.89-34.1-22.84c-7.15,14.48-16.84,24.92-33.92,22.4c-15.03-2.22-22.78-12.57-25.85-27.58
	c-10.24,16.95-23.14,29.33-43.82,27.81c-21.52-1.58-29.56-17.72-35.64-36.32c-1.33,2.89-2.07,5.29-3.41,7.29
	c-4.7,7.02-8.91,14.53-14.57,20.7c-13.91,15.16-33.26,8.19-41.67-3.13c-8.15-10.98-10.83-23.76-12.57-36.89
	c-0.11-0.82-0.18-1.64-0.43-4.09c-1.39,2.76-2.17,4.24-2.9,5.74c-8.07,16.58-17.86,31.81-34.9,40.52
	c-20.12,10.28-40.55,8.95-60.7,0.04c-7.69-3.4-8.64-7.14-5.24-14.86c0.6-1.37,1.29-2.71,2.09-3.97c5.76-9.02,9.62-9.71,18.15-3.47
	c2.41,1.77,4.86,3.54,7.5,4.93c11.82,6.2,22.16,0.44,23.57-12.94c0.93-8.85-2.21-16.36-7.49-23.14c-2.04-2.62-4.27-5.14-6.66-7.44
	c-5.27-5.08-10.69-10-16.48-15.38c-1.15,1.78-2.14,3.21-3.03,4.69c-8.55,14.28-16.73,28.81-25.77,42.78
	c-5.39,8.34-11.8,16.1-18.38,23.57c-3.22,3.65-7.58,6.59-11.92,8.91c-12.13,6.45-22.95,2.1-27.48-10.86
	c-4.82-13.8-4.58-28.2-4.24-42.52c0.42-17.65,1.35-35.3,2.02-52.95c0.11-2.98,0.02-5.96,0.02-10.79c-2.72,2.51-4.68,3.96-6.2,5.79
	c-11.07,13.38-18.68,28.72-24.67,44.86c-7.54,20.32-13.67,41.04-16.17,62.67c-0.45,3.95-2.22,6.22-6.27,6.25
	c-3.99,0.03-8.01,0.18-11.95-0.3c-5.03-0.62-8.12-4.15-9.16-8.78c-1.19-5.32-2.08-10.84-2.08-16.28
	c0.04-36.99,0.34-73.99,0.6-110.98c0.04-5.21,1.86-6.77,7.12-6.3c1.49,0.13,2.97,0.42,4.44,0.69c13.98,2.53,15.51,4.34,15.46,18.35
	c-0.06,16.16-0.12,32.33-0.19,48.49c-0.01,1.6,0,3.19,1.05,4.98c2.42-6.62,4.85-13.24,7.26-19.87c4.8-13.18,10.23-26.05,18.87-37.27
	c5.47-7.11,11.74-13.22,21.08-14.95c15.32-2.83,31.16,11.04,30.63,26.38c-0.79,22.81-1.26,45.63-1.63,68.45
	c-0.08,4.62,0.51,9.34,1.46,13.87c1.35,6.49,4.91,7.54,9.78,2.91c2.87-2.73,5.59-5.83,7.59-9.22c9.87-16.78,19.54-33.69,29.04-50.68
	c0.76-1.36,0.35-4.25-0.64-5.58c-7.62-10.18-7.46-20.81-1.76-31.46c5.91-11.04,14.99-17.72,28.06-17.57
	c11.66,0.13,17.05,6.51,13.42,17.47c-2.57,7.76-7.25,14.83-11.1,22.15c-0.76,1.45-1.99,2.65-3.27,4.31c0.96,0.9,1.81,1.84,2.8,2.59
	c8.07,6.17,16.21,12.26,24.25,18.47c13.83,10.69,22.83,23.69,20.38,42.82c2.61-2.92,5.45-5.68,7.79-8.8
	c9.5-12.68,15.59-26.45,15.2-42.84c-0.43-18.32,0.02-36.66,0.09-54.99c0.01-1.62,0-3.25,0-6.17c-9.99,0-19.45-0.19-28.89,0.08
	c-4.88,0.14-6.73-1.93-6.44-6.5c0.11-1.66,0.13-3.35,0.46-4.97c1.95-9.75,3.74-11.02,13.61-10.77c7.47,0.19,14.94,0.04,22.87,0.04
	c0.35-8.38,0.71-16.99,1.07-25.59c0.14-3.33,0.31-6.66,0.43-9.99c0.14-3.83,1.26-7.14,4.76-9.24c1.67,0,3.33,0,5,0
	c3.98,1.09,7.99,2.09,11.94,3.29c11.03,3.36,11.4,3.94,10.67,15.32c-0.19,2.99-0.49,5.99-0.53,8.98c-0.08,6.26-0.02,12.53-0.02,19.1
	c1.91,0.14,3.7,0.29,5.5,0.4c10.64,0.66,21.29,1.19,31.91,2.07c1.84,0.15,4.56,1.35,5.17,2.79c3.07,7.2-2.83,16-10.5,16.05
	c-10.94,0.08-21.88,0.02-32.77,0.02c-0.29,1.73-0.48,2.38-0.5,3.02c-0.84,28.65-2.09,57.29-2.26,85.95
	c-0.06,10,1.58,20.28,4.19,29.96c2.71,10.05,9.68,11.48,17.23,4.2c10.69-10.33,16.33-23.27,17.84-38.05
	c1.05-10.25,1.62-20.6,3.41-30.73c2.84-16.08,9.38-30.62,21.75-41.78c12.43-11.22,29.89-11.84,42.62-1.83
	c3.06,2.41,5.69,5.37,8.6,8.15c1.75-10.06,3.58-11.37,14.08-9.75c2.78,0.43,5.55,1.17,8.2,2.13c6.45,2.34,7.54,4.11,7.45,11.09
	c-0.35,25.82-1.04,51.65-0.82,77.47c0.07,8.18,1.9,16.54,4.22,24.43c2.05,7,8.86,9.38,14.3,6.38c5.94-3.27,13.21-17.35,12.13-24.09
	c-2.71-16.83-2.02-33.58,1.34-50.18c3.21-15.87,8.85-30.82,20.65-42.5c14.44-14.29,35.61-13.48,49.26,1.54
	c1.08,1.19,2.13,2.4,3.4,3.85c1.58-9.93,3.78-11.59,13.67-10.18c3.11,0.44,6.13,1.48,9.18,2.3c5.26,1.42,7.15,4.62,7.03,10.29
	c-0.6,28.49-0.78,56.99-1.08,85.48c-0.02,1.54,0.18,3.08,0.36,6c15.57-22.39,27-45.11,33.27-70.26c0.29-1.18-0.68-3.21-1.71-4.11
	c-11.42-9.96-6.33-27.53,1.72-34.19c5.3-4.38,14.48-5.69,20.23-2.53c6.55,3.6,6.87,9.62,6.02,16.07c-0.19,1.42-0.03,2.89-0.03,4.53
	c0.9-0.06,1.54-0.05,2.16-0.16c9.34-1.68,18.65-3.52,28.01-5.02c12.77-2.04,20.37,5.44,18.57,18.22c-0.55,3.94-1.63,7.82-2.51,11.71
	c-4.25,18.74-8.02,37.6-5.24,56.88c1.07,7.42,3.42,14.91,6.64,21.69c2.96,6.25,8.9,7.32,14.41,4.36
	c5.8-3.12,11.84-14.95,10.67-21.38c-3.12-17.26-2.71-34.49,0.28-51.69c2.62-15.03,8.18-28.85,18.18-40.52
	c14.92-17.42,37.97-17.39,53.02-0.19c0.7,0.79,1.54,1.46,2.52,2.39c0.96-9.41,2.78-11.02,11.81-10.01c3.6,0.4,7.24,1.24,10.66,2.46
	c6.58,2.35,7.47,4.18,7.32,11.18c-0.53,23.99-1.35,47.98-1.25,71.97c0.04,9.55,1.32,19.32,3.67,28.58
	c2.62,10.35,12.12,11.89,18.75,3.45c7.36-9.36,11.96-20.25,12.31-32.14c0.73-24.98,0.69-49.99,0.93-74.99
	c0.13-13.64,1.19-14.49,14.89-11.56c13.46,2.88,13.44,2.88,13.42,16.63c-0.02,12.91,0,25.81,0,38.72c1.53-1.38,2.12-3.02,2.7-4.65
	c4.89-13.62,9.35-27.41,14.79-40.8c4.87-12.01,10.09-13.8,22.42-9.47c0.94,0.33,1.88,0.69,2.79,1.09c7.77,3.4,12.1,9.09,11.97,17.83
	c-0.06,3.83-0.07,7.67,0.11,11.5c0.76,15.76,1.61,31.51,2.47,48.17c1.05-1.18,1.39-1.39,1.45-1.66c0.38-1.79,0.7-3.6,1.02-5.4
	c4.12-22.7,11.28-44.49,20.14-65.73c2.65-6.36,6.93-8.68,13.59-7.17c4.82,1.09,9.58,2.81,14.07,4.89c9.4,4.36,11,8.12,10.8,18.53
	c-0.44,22.82-1.05,45.66-0.34,68.45c0.27,8.72,2.87,17.78,6.32,25.87c3.57,8.37,12.08,8.04,16.44-0.01
	c2.26-4.19,3.56-8.92,5.08-13.48c1.26-3.78,1.94-7.77,3.42-11.45c0.55-1.36,2.66-2.9,4.05-2.89c1.38,0,2.92,1.7,4.07,2.94
	c0.73,0.79,0.89,2.1,1.31,3.18C1273,413.33,1273,414.67,1273,416z M652.79,377.92c-0.41-10.16-0.35-21.59-5.68-32.02
	c-6.47-12.66-20.79-14.17-29.16-2.67c-3.62,4.98-6.21,11.05-7.93,17.01c-4.09,14.2-4.76,28.89-3.82,43.59
	c0.62,9.66,2,19.28,7.07,27.82c5.83,9.83,15.3,11.35,23.17,3.07c4.02-4.22,7.19-9.61,9.51-15
	C651.5,406.81,652.3,392.93,652.79,377.92z M739.14,390.78c0.26,0.08,0.52,0.16,0.78,0.24c0.38,6.31,0.15,12.74,1.29,18.91
	c1.31,7.13,2.94,14.45,6.01,20.95c5.17,10.94,15.59,12.41,23.88,3.51c3.85-4.13,6.95-9.42,8.98-14.73
	c6.84-17.91,8.08-36.66,6.28-55.58c-0.57-6.05-1.8-12.28-4.07-17.88c-4.79-11.81-18.01-14.42-26.72-5.1
	c-4.17,4.47-7.76,10.28-9.45,16.11C742.97,368.16,741.38,379.57,739.14,390.78z M1022.12,379.75c0.02-11.35-0.31-22.71-5.23-33.21
	c-6.23-13.31-21.01-15.13-29.6-3.22c-3.86,5.36-6.48,12.01-8.17,18.46c-3.76,14.43-3.98,29.31-2.98,44.12
	c0.64,9.46,2.02,18.92,7.49,27.09c5.42,8.08,13.73,9.69,20.8,3.06c4.34-4.07,7.98-9.42,10.43-14.87
	C1020.74,408.09,1022.17,394,1022.12,379.75z M790.04,470.98c-14.53,15-28.74,28.39-36.74,46.58c-2.09,4.75-3.32,10.21-3.48,15.4
	c-0.41,12.94,10.72,19.79,22.6,14.56c7.52-3.31,10.48-9.93,12.57-17.05C790.54,511.53,790.32,492.07,790.04,470.98z"/>
<path class="st0" d="M210,241c4.77,1.86,9.67,3.44,14.27,5.65c3.62,1.74,5.65,4.77,5.63,9.22c-0.36,57.49-0.5,114.98-1.01,172.46
	c-0.11,12.44-3.29,24.38-9.44,35.37c-5.03,9-12.01,15.96-21.63,19.88c-1.78,0.73-4.55,0.84-6.01-0.09
	c-0.98-0.63-1.12-3.84-0.52-5.49c7.75-21.17,7.05-43.25,7.19-65.21c0.31-48.49,0.45-96.99,0.63-145.48c0.01-2.08-0.27-4.15-0.55-8
	c-3.23,2.92-5.53,4.65-7.4,6.75c-12.7,14.26-19.4,31.27-22.2,49.92c-2.49,16.61-1.09,32.54,8.77,46.95
	c1.08,1.58,1.37,5.03,0.37,6.32c-0.92,1.18-4.35,1.34-6.23,0.67c-16.66-5.91-26.31-17.94-29.82-35.11
	c-0.33-1.61-0.71-3.21-1.06-4.81c0-2,0-4,0-6c1.46-6.27,2.37-12.72,4.47-18.76c10.08-29.05,28.15-51.22,56.53-64.24
	C204.67,241,207.33,241,210,241z"/>
</svg>
